<?xml version="1.0" standalone="no"?>
<!DOCTYPE svg PUBLIC "-//W3C//DTD SVG 20010904//EN"
 "http://www.w3.org/TR/2001/REC-SVG-20010904/DTD/svg10.dtd">
<svg version="1.0" xmlns="http://www.w3.org/2000/svg"
 width="412.000000pt" height="412.000000pt" viewBox="0 0 412.000000 412.000000"
 preserveAspectRatio="xMidYMid meet">
<metadata>
Created by potrace 1.14, written by Peter Selinger 2001-2017
</metadata>
<g transform="translate(0.000000,412.000000) scale(0.100000,-0.100000)"
fill="#000000" stroke="none">
<path d="M3068 3881 c8 -5 -7 -8 -40 -8 -64 0 -138 -6 -132 -12 2 -2 -17 -14
-42 -27 -53 -27 -84 -59 -84 -86 0 -10 -4 -18 -9 -18 -4 0 -14 -20 -21 -44 -9
-34 -9 -56 0 -100 6 -31 16 -56 21 -56 6 0 8 -4 4 -10 -3 -5 3 -18 15 -30 16
-16 33 -20 88 -20 95 1 102 2 102 16 0 7 6 17 13 21 25 15 36 67 24 107 -10
30 -16 36 -39 36 -16 0 -28 5 -28 10 0 15 -29 12 -47 -5 -8 -8 -19 -12 -25 -9
-7 4 -8 2 -4 -4 4 -7 1 -12 -7 -12 -8 0 -14 -7 -13 -16 0 -9 -5 -19 -11 -21
-17 -6 -17 44 -1 95 12 39 64 82 99 82 10 0 19 5 19 11 0 16 139 7 149 -9 4
-7 15 -10 24 -6 10 3 17 1 17 -5 0 -6 8 -11 19 -11 37 0 143 -143 126 -170 -4
-6 -2 -10 3 -10 5 0 12 -11 14 -25 3 -14 1 -25 -5 -25 -9 0 -7 -17 9 -54 5
-15 4 -17 -6 -11 -9 6 -11 4 -5 -4 4 -7 3 -23 -3 -34 -5 -12 -15 -37 -22 -54
-7 -18 -17 -33 -22 -33 -5 0 -6 -4 -3 -10 3 -5 2 -10 -3 -10 -5 0 -14 -11 -20
-24 -19 -43 -55 -76 -80 -76 -14 0 -22 -3 -19 -6 4 -4 -9 -15 -28 -25 -26 -14
-46 -17 -80 -13 -25 4 -50 2 -57 -3 -7 -6 -23 -12 -34 -15 l-21 -5 18 51 c12
31 15 52 9 54 -10 4 -39 53 -41 69 -2 10 -63 38 -102 47 -21 5 -27 4 -21 -5 5
-9 2 -10 -10 -6 -11 5 -31 -1 -51 -13 -17 -11 -34 -17 -37 -15 -3 3 -13 -10
-22 -28 -20 -43 -29 -147 -12 -147 6 0 19 -13 29 -29 9 -16 27 -31 39 -34 13
-3 37 -10 53 -17 24 -9 36 -9 60 1 50 20 53 20 46 -15 -8 -35 -8 -40 3 -81 7
-31 48 -85 64 -85 6 0 22 -6 37 -14 36 -19 99 -12 127 14 12 11 25 20 29 20 4
0 13 15 20 33 l13 32 3 -60 c4 -71 25 -117 62 -132 65 -27 98 -34 125 -23 15
5 38 10 51 10 13 0 27 5 31 12 5 7 3 8 -5 3 -10 -6 -11 -3 -2 14 7 11 15 21
19 21 4 0 13 21 20 46 11 40 10 53 -5 93 -20 54 -28 63 -70 82 -18 7 -33 17
-33 21 0 5 -22 8 -50 8 -27 0 -50 -4 -50 -10 0 -5 -6 -10 -13 -10 -8 0 -22 -9
-32 -20 -22 -25 -45 -26 -45 -2 0 9 -7 30 -15 46 -19 36 -19 36 6 36 13 0 18
4 13 12 -5 8 -2 9 9 5 10 -3 17 -2 17 3 0 5 9 12 21 15 11 4 18 9 15 12 -2 3
6 16 19 29 24 24 41 32 30 14 -3 -5 -2 -10 4 -10 5 0 12 6 14 13 3 6 6 0 6
-14 1 -32 28 -99 40 -99 4 0 20 -12 35 -26 14 -15 26 -24 26 -21 0 4 17 -3 37
-14 24 -14 39 -17 41 -10 2 6 15 11 29 11 13 0 31 7 39 15 9 8 13 15 9 15 -4
0 1 7 10 16 9 9 19 29 22 45 9 45 30 34 47 -24 21 -74 39 -87 115 -87 43 0 60
3 55 11 -4 7 1 7 16 -1 15 -8 20 -8 16 -1 -5 7 1 11 15 11 12 0 20 3 16 6 -7
8 17 34 31 34 6 0 22 14 36 31 26 31 37 103 17 111 -5 2 -11 10 -13 18 -4 19
-44 60 -58 60 -6 0 -9 4 -6 8 2 4 -5 9 -16 9 -26 2 -32 9 -25 28 5 11 22 15
69 15 44 0 59 3 48 10 -11 7 -11 10 -2 10 7 0 24 11 38 25 34 34 37 105 6 163
-15 29 -18 42 -9 46 9 3 8 5 -1 5 -8 1 -31 19 -53 41 -35 35 -45 40 -87 40
-34 0 -43 -3 -32 -10 12 -8 11 -10 -7 -10 -13 0 -23 -4 -23 -10 0 -5 -7 -10
-16 -10 -8 0 -12 -5 -8 -11 4 -7 -1 -10 -12 -7 -14 2 -20 14 -22 43 -2 23 -12
47 -23 58 -11 10 -17 22 -14 28 4 5 -3 9 -15 9 -12 0 -18 5 -15 10 9 15 -97
12 -134 -3 -17 -7 -28 -17 -24 -22 5 -5 0 -3 -11 5 -16 13 -20 12 -36 -8 -10
-12 -23 -22 -28 -22 -6 0 -13 -9 -17 -19 -7 -23 -45 -24 -45 -1 0 8 -9 21 -20
28 -11 7 -20 22 -20 35 0 15 -3 18 -8 9 -6 -9 -13 -7 -30 8 -11 11 -24 20 -27
20 -3 0 -15 9 -27 20 -12 11 -35 20 -50 20 -17 0 -27 4 -23 10 4 6 -8 10 -29
10 -19 0 -38 5 -41 10 -3 6 -12 10 -18 10 -8 0 -8 -3 1 -9z m386 -370 c16 -18
16 -18 -7 -18 -15 0 -23 6 -24 18 -1 11 2 19 6 19 4 0 16 -8 25 -19z m0 -86
c8 -8 25 -15 39 -15 32 0 39 -9 21 -27 -8 -9 -24 -13 -37 -10 -12 3 -31 -1
-41 -9 -11 -8 -28 -14 -38 -14 -26 0 -24 48 4 71 26 23 32 23 52 4z"/>
<path d="M1837 3797 c4 -6 0 -8 -10 -4 -11 4 -21 -1 -28 -16 -7 -12 -23 -30
-36 -40 -13 -10 -30 -25 -37 -33 -8 -8 -20 -14 -27 -14 -7 0 -10 -3 -6 -6 7
-8 -12 -28 -35 -37 -10 -3 -18 -13 -18 -22 0 -8 -7 -15 -17 -15 -9 0 -13 -3
-10 -6 4 -4 -3 -15 -15 -25 -11 -11 -18 -19 -14 -19 4 0 -15 -21 -41 -47 -26
-27 -59 -69 -73 -95 -14 -27 -31 -48 -39 -48 -8 0 -11 6 -6 18 5 13 4 14 -6 5
-10 -10 -9 -15 1 -28 9 -11 9 -15 1 -15 -7 0 -9 -4 -6 -10 3 -5 2 -10 -4 -10
-5 0 -12 -9 -16 -19 -4 -13 -11 -18 -22 -14 -12 5 -15 2 -10 -10 3 -9 2 -17
-2 -17 -5 0 -12 -7 -15 -16 -3 -9 -2 -12 5 -8 6 3 5 -3 -3 -15 -7 -12 -16 -21
-19 -21 -4 0 -12 -15 -20 -32 -7 -18 -25 -60 -39 -93 -50 -110 -72 -234 -71
-384 2 -132 6 -156 48 -274 7 -21 11 -43 8 -48 -4 -5 -2 -9 3 -9 12 0 29 -39
51 -119 17 -64 17 -67 0 -95 -18 -29 -17 -46 2 -46 6 0 7 5 4 10 -3 6 -1 10 4
10 6 0 11 -4 11 -10 0 -5 15 -10 34 -10 19 0 36 -5 38 -12 3 -7 12 -9 22 -5
10 4 14 12 10 18 -5 8 -3 9 6 4 7 -4 16 -2 20 5 6 10 37 13 119 11 71 -1 111
2 111 9 0 6 30 10 73 11 49 0 66 3 52 9 -19 8 -19 9 2 9 12 1 25 6 28 11 3 6
15 10 26 10 10 0 28 5 39 10 11 6 29 15 40 20 11 6 26 10 33 10 7 0 29 14 47
30 18 17 42 30 52 30 11 0 16 5 13 10 -3 6 4 10 17 10 18 0 20 2 8 10 -13 8
-12 10 3 10 10 0 25 7 33 15 9 8 13 15 9 15 -13 0 43 48 63 54 12 4 22 13 23
19 2 32 9 51 24 66 16 15 17 14 10 -9 -5 -14 -7 -31 -6 -37 1 -7 2 -22 3 -32
1 -11 6 -17 10 -15 4 3 8 -2 8 -10 0 -9 13 -22 30 -31 36 -18 100 -20 100 -2
0 9 2 9 9 -1 7 -11 9 -10 15 3 3 9 10 13 16 10 5 -3 10 1 10 10 0 9 4 14 8 11
4 -2 8 3 9 12 4 50 17 102 25 102 5 0 -14 21 -43 46 -45 40 -55 44 -82 38 -18
-3 -47 -18 -66 -32 -41 -30 -25 2 22 46 9 9 17 25 17 35 0 9 7 20 15 23 8 4
12 10 9 15 -3 5 0 9 5 9 6 0 14 18 17 40 4 22 10 40 15 40 4 0 14 18 20 40 7
22 15 40 19 40 5 0 11 11 14 25 4 14 10 24 14 21 4 -2 8 11 9 29 0 19 8 41 17
50 9 9 16 25 16 34 0 10 6 24 14 31 8 6 13 17 10 23 -2 7 5 37 16 67 11 30 20
67 20 81 0 15 7 46 15 70 10 26 13 54 9 69 -4 14 -7 28 -6 33 1 4 -14 7 -33 7
-19 0 -35 5 -35 10 0 6 -7 10 -15 10 -8 0 -15 5 -15 10 0 6 -7 10 -15 10 -8 0
-15 5 -15 10 0 6 -7 10 -16 10 -8 0 -12 5 -9 10 5 9 -1 12 -21 9 -3 0 -14 9
-23 20 -10 12 -28 21 -40 21 -11 0 -21 4 -21 8 0 5 -16 14 -35 22 -19 7 -32
17 -29 22 3 4 0 8 -7 8 -7 0 -23 9 -35 21 -12 11 -31 21 -42 22 -12 0 -19 3
-17 6 6 6 -44 31 -61 31 -8 0 -14 5 -14 10 0 6 -7 10 -15 10 -8 0 -15 4 -15 8
0 5 -16 14 -35 22 -19 7 -32 17 -29 22 3 4 -4 8 -16 8 -12 0 -28 7 -36 15 -9
8 -12 15 -7 15 4 0 -5 7 -21 15 -15 8 -37 15 -47 15 -11 0 -19 4 -19 9 0 5
-11 9 -25 9 -15 0 -22 -5 -18 -11z m79 -116 c-7 -11 22 -23 36 -14 7 3 8 1 4
-5 -4 -7 -1 -12 8 -12 9 0 16 -4 16 -10 0 -5 11 -10 24 -10 25 0 51 -22 39
-33 -6 -6 20 -11 40 -8 4 0 7 -4 7 -9 0 -5 9 -10 21 -10 11 0 17 -4 14 -10 -3
-5 2 -10 12 -10 15 0 16 -2 3 -10 -11 -7 -8 -10 16 -10 19 0 34 -6 38 -15 3
-9 12 -12 22 -8 12 4 15 3 10 -5 -5 -8 0 -12 13 -12 11 0 34 -15 52 -32 18
-19 40 -32 51 -30 10 2 18 -2 18 -7 0 -6 10 -11 23 -11 18 0 19 -2 7 -10 -13
-9 -13 -10 1 -10 20 0 69 -23 69 -32 0 -5 7 -8 16 -8 8 0 12 -4 9 -10 -3 -5 1
-10 10 -10 33 0 60 -52 38 -74 -5 -4 -8 -11 -8 -14 -2 -20 -18 -52 -26 -52 -5
0 -9 -17 -7 -37 2 -29 -1 -38 -14 -41 -15 -3 -17 2 -11 30 3 18 12 49 19 70
l12 36 -46 -2 c-26 -1 -56 -6 -67 -10 -16 -6 -17 -6 -5 3 10 7 11 11 3 11 -7
0 -17 -9 -23 -20 -6 -11 -20 -20 -30 -20 -11 0 -20 -4 -20 -10 0 -5 -7 -10
-15 -10 -8 0 -15 -4 -15 -10 0 -5 -9 -10 -20 -10 -11 0 -20 -5 -20 -11 0 -5 6
-7 13 -3 15 9 -23 -38 -40 -49 -7 -4 -13 -14 -13 -22 0 -8 -8 -19 -17 -24 -10
-6 -15 -11 -10 -11 4 0 0 -12 -10 -26 -15 -24 -17 -25 -24 -8 -6 16 -8 15 -7
-6 1 -44 -18 -84 -35 -73 -5 3 -8 -1 -6 -8 3 -28 -1 -39 -17 -39 -8 0 -13 -4
-10 -9 3 -5 -1 -11 -9 -15 -8 -3 -15 -13 -15 -21 0 -9 -4 -13 -10 -10 -5 3
-10 2 -10 -4 0 -5 -9 -13 -20 -16 -11 -4 -18 -11 -15 -16 4 -5 1 -9 -5 -9 -6
0 -8 -4 -5 -10 3 -5 -3 -10 -14 -10 -12 0 -21 -4 -21 -10 0 -5 -10 -10 -22
-10 -19 0 -20 -2 -8 -11 12 -9 11 -10 -8 -6 -12 3 -20 2 -17 -2 7 -12 -38 -29
-95 -37 -29 -4 -47 -10 -40 -14 15 -9 -152 -23 -304 -26 -87 -1 -121 -5 -127
-15 -10 -16 -4 -67 18 -149 9 -30 15 -61 16 -67 0 -7 5 -13 10 -13 5 0 7 -9 4
-19 -3 -12 3 -27 14 -37 24 -22 25 -47 2 -42 -10 2 -17 11 -17 21 1 9 -3 17
-9 17 -6 0 -8 3 -4 6 3 4 -5 27 -17 53 -13 26 -26 64 -27 86 -2 22 -9 51 -16
65 -15 30 -17 176 -3 275 11 74 56 233 71 250 5 5 9 16 9 25 0 20 33 60 49 60
7 0 10 4 7 9 -3 5 1 11 9 15 8 3 12 12 9 20 -3 7 5 23 17 35 13 12 24 28 25
37 4 23 33 64 46 64 6 0 9 3 5 6 -5 6 0 15 31 49 8 9 18 12 24 9 7 -4 8 -2 4
4 -7 11 20 45 107 132 20 21 37 41 37 46 0 4 19 27 43 50 37 37 47 42 90 43
27 1 46 -3 43 -8z m557 -617 c-3 -8 -8 -14 -12 -14 -12 0 -73 -158 -66 -169 3
-6 2 -11 -3 -11 -5 0 -12 -10 -15 -22 -4 -12 -9 -19 -13 -15 -8 8 14 82 33
113 8 12 13 26 12 30 -1 5 5 26 14 46 10 21 17 44 17 51 0 21 12 28 26 16 7
-6 10 -17 7 -25z m-123 -274 c-12 -41 -33 -80 -42 -80 -4 0 -8 -9 -8 -20 0
-11 -7 -20 -15 -20 -8 0 -15 -2 -15 -4 0 -2 -3 -12 -7 -22 -4 -12 -3 -15 5
-10 8 5 10 2 6 -9 -8 -20 -16 -12 -19 20 -2 14 1 25 6 25 6 0 8 4 5 9 -3 5 1
14 8 21 8 6 18 25 21 41 4 17 13 33 21 36 8 3 13 10 12 17 -1 6 2 22 7 36 7
23 8 24 15 5 4 -11 4 -31 0 -45z m-119 -209 c-12 -11 -22 -22 -22 -25 3 -21
-1 -27 -15 -24 -10 2 -18 -5 -20 -15 -3 -25 -10 -31 -24 -22 -7 4 0 17 19 36
17 16 31 34 31 39 0 19 34 50 44 40 6 -6 2 -17 -13 -29z m-77 -100 c6 -8 -21
-26 -35 -23 -4 1 -10 -10 -13 -24 -5 -17 -12 -24 -21 -20 -9 3 -12 0 -8 -10 3
-9 -2 -14 -16 -14 -12 0 -21 3 -21 6 0 3 19 25 43 49 42 44 61 53 71 36z
m-125 -117 c-6 -8 -17 -14 -23 -14 -6 0 -26 -13 -44 -30 -18 -16 -44 -30 -56
-30 -13 0 -29 -6 -35 -14 -7 -8 -30 -17 -52 -21 -21 -4 -41 -11 -45 -16 -3 -5
-30 -9 -60 -9 -30 0 -54 -4 -54 -10 0 -6 -41 -10 -102 -10 l-103 0 -32 37
c-18 20 -29 41 -25 47 4 7 8 5 10 -5 1 -9 14 -22 27 -29 14 -7 25 -16 25 -20
0 -11 134 -12 162 -1 14 5 53 11 87 13 33 2 61 5 61 8 0 8 62 30 82 30 8 0 27
9 42 21 14 11 26 17 26 12 0 -4 4 -3 8 3 4 6 27 22 51 37 45 26 72 27 50 1z"/>
<path d="M2440 3300 c0 -5 5 -10 11 -10 5 0 7 5 4 10 -3 6 -8 10 -11 10 -2 0
-4 -4 -4 -10z"/>
<path d="M1310 2681 c0 -6 4 -12 8 -15 5 -3 9 1 9 9 0 8 -4 15 -9 15 -4 0 -8
-4 -8 -9z"/>
<path d="M2980 3740 c0 -5 5 -10 10 -10 6 0 10 5 10 10 0 6 -4 10 -10 10 -5 0
-10 -4 -10 -10z"/>
<path d="M1560 3660 c0 -5 5 -10 11 -10 5 0 7 5 4 10 -3 6 -8 10 -11 10 -2 0
-4 -4 -4 -10z"/>
<path d="M2980 3200 c0 -5 9 -10 20 -10 11 0 20 5 20 10 0 6 -9 10 -20 10 -11
0 -20 -4 -20 -10z"/>
<path d="M2620 3100 c0 -5 7 -10 15 -10 8 0 15 -4 15 -9 0 -5 9 -11 19 -14 14
-3 18 -1 14 9 -3 8 -11 14 -19 14 -8 0 -14 5 -14 10 0 6 -7 10 -15 10 -8 0
-15 -4 -15 -10z"/>
<path d="M2614 3046 c-6 -6 -23 -20 -37 -31 -16 -11 -27 -29 -27 -42 0 -13 -4
-23 -9 -23 -9 0 -8 -25 4 -77 6 -24 50 -73 66 -73 6 0 8 -4 5 -9 -12 -19 90
-28 129 -11 14 6 15 9 5 10 -12 0 -11 3 3 11 9 5 27 29 38 51 27 53 21 120
-15 153 -14 13 -22 26 -19 29 4 3 0 6 -8 6 -11 0 -11 2 1 10 9 6 10 10 3 10
-6 0 -15 -4 -18 -10 -5 -8 -69 -5 -100 4 -6 2 -15 -2 -21 -8z"/>
<path d="M2800 3046 c0 -2 7 -6 15 -10 8 -3 15 -1 15 4 0 6 -7 10 -15 10 -8 0
-15 -2 -15 -4z"/>
<path d="M2920 2876 c0 -2 7 -6 15 -10 8 -3 15 -1 15 4 0 6 -7 10 -15 10 -8 0
-15 -2 -15 -4z"/>
<path d="M2984 2850 c-12 -5 -38 -7 -57 -6 -31 3 -39 -2 -64 -35 -15 -21 -33
-39 -39 -39 -19 0 -8 -87 15 -126 12 -19 17 -33 13 -30 -5 3 -9 -1 -9 -9 0
-17 13 -20 22 -5 4 6 15 4 29 -5 12 -8 26 -12 31 -8 4 5 5 2 1 -4 -5 -9 1 -13
18 -13 14 0 26 4 26 9 0 5 8 8 18 7 16 -3 92 31 92 41 0 2 -4 1 -10 -2 -13 -8
-13 8 0 21 18 18 24 110 9 129 -31 36 -54 55 -67 55 -8 0 -12 6 -8 15 3 8 4
15 3 14 -1 0 -12 -4 -23 -9z"/>
<path d="M2500 2780 c0 -5 5 -10 10 -10 6 0 10 5 10 10 0 6 -4 10 -10 10 -5 0
-10 -4 -10 -10z"/>
<path d="M2578 2743 c-10 -2 -18 -9 -18 -14 0 -6 -8 -9 -17 -7 -19 3 -29 -31
-37 -129 -5 -50 -4 -54 24 -68 17 -9 30 -20 30 -25 0 -6 11 -10 24 -10 14 0
28 -4 31 -10 3 -5 13 -10 21 -10 8 0 12 5 9 10 -4 6 7 10 24 10 17 0 31 5 31
11 0 8 11 9 31 5 27 -5 30 -4 19 9 -7 8 -8 15 -2 15 5 0 15 20 21 44 11 47 2
95 -25 127 -8 9 -11 19 -7 24 5 4 2 5 -4 1 -7 -4 -23 0 -35 8 -21 15 -81 19
-120 9z"/>
<path d="M3215 2560 c3 -5 8 -10 11 -10 2 0 4 5 4 10 0 6 -5 10 -11 10 -5 0
-7 -4 -4 -10z"/>
<path d="M2790 2518 c0 -4 4 -8 9 -8 6 0 12 4 15 8 3 5 -1 9 -9 9 -8 0 -15 -4
-15 -9z"/>
<path d="M3276 2518 c3 -5 10 -6 15 -3 13 9 11 12 -6 12 -8 0 -12 -4 -9 -9z"/>
<path d="M2700 2480 c0 -6 -3 -9 -7 -9 -5 1 -15 1 -23 0 -13 -1 -13 -2 0 -11
9 -5 19 -5 26 0 6 6 15 6 19 2 5 -4 4 -1 0 7 -6 11 -4 13 8 8 9 -3 18 -3 21 1
2 4 -6 9 -20 10 -13 1 -24 -3 -24 -8z"/>
<path d="M2575 2470 c-16 -7 -17 -9 -3 -9 9 -1 20 4 23 9 7 11 7 11 -20 0z"/>
<path d="M2608 2433 c-7 -9 -4 -11 11 -8 11 2 28 8 38 13 14 8 12 10 -11 9
-15 -1 -32 -7 -38 -14z"/>
<path d="M2520 2380 c-9 -6 -10 -10 -3 -10 6 0 15 5 18 10 8 12 4 12 -15 0z"/>
<path d="M787 990 c3 -9 -3 -24 -11 -33 -9 -8 -16 -20 -16 -26 0 -6 -11 -13
-25 -17 -14 -3 -25 -10 -25 -16 0 -5 -4 -6 -10 -3 -5 3 -10 1 -10 -5 0 -18
-27 -40 -49 -40 -12 0 -21 -5 -21 -11 0 -5 -4 -8 -9 -5 -5 3 -11 -1 -15 -9 -3
-8 -13 -15 -23 -15 -15 0 -16 -2 -3 -10 10 -7 11 -10 2 -10 -7 0 -16 -8 -19
-17 -4 -10 -17 -28 -30 -41 -13 -13 -23 -27 -23 -32 0 -6 -29 -10 -65 -10 -37
0 -65 4 -65 10 0 6 -9 10 -21 10 -12 0 -17 4 -13 11 4 7 0 9 -13 5 -22 -7
-137 26 -127 37 4 4 0 7 -9 7 -10 0 -17 5 -17 10 0 6 -12 10 -26 10 -14 0 -23
4 -19 10 4 6 -8 10 -29 10 -20 0 -36 -5 -36 -11 0 -5 -6 -7 -12 -3 -7 4 -10 4
-6 -1 4 -4 3 -14 -3 -21 -15 -18 19 -63 49 -64 12 0 22 -4 22 -10 0 -5 9 -10
19 -10 10 0 41 -18 67 -40 27 -22 57 -40 66 -40 10 0 18 -4 18 -10 0 -5 7 -10
16 -10 8 0 12 -4 9 -10 -4 -6 5 -10 19 -10 14 0 26 -4 26 -10 0 -5 7 -10 16
-10 8 0 13 -3 11 -7 -3 -5 1 -13 8 -20 11 -10 15 -10 19 0 3 8 11 5 24 -10 11
-13 25 -23 30 -23 18 0 62 -27 55 -33 -3 -4 2 -7 13 -8 24 -1 77 -31 75 -43
-3 -11 46 -36 71 -36 10 0 16 -4 13 -10 -3 -5 1 -10 10 -10 9 0 13 -4 10 -10
-3 -6 4 -10 17 -10 26 -1 61 -24 51 -33 -3 -4 1 -7 9 -7 9 0 34 -10 56 -21 28
-15 39 -26 34 -37 -4 -12 -1 -14 12 -9 10 4 26 7 36 7 23 0 47 55 31 73 -6 8
-8 17 -4 20 3 4 -5 7 -18 7 -14 0 -34 8 -45 18 -11 9 -29 22 -40 29 -10 6 -18
16 -16 22 1 6 -5 11 -14 11 -8 0 -12 4 -9 10 3 6 -3 10 -14 10 -12 0 -21 5
-21 10 0 6 -7 10 -16 10 -8 0 -12 4 -9 10 3 6 1 10 -4 10 -6 0 -11 6 -11 14 0
7 -11 22 -25 32 -14 10 -30 36 -36 58 -11 42 -3 116 13 116 13 0 38 26 32 33
-8 7 25 67 36 67 6 0 10 9 10 19 0 11 7 26 15 35 8 8 15 20 15 26 0 14 36 61
42 55 2 -2 9 4 15 14 10 16 9 18 -10 15 -12 -2 -16 -2 -10 2 10 4 10 11 1 27
l-11 22 24 -20 c13 -11 18 -13 11 -4 -6 9 -10 18 -7 21 3 2 -10 5 -29 5 -26 0
-32 -4 -29 -17z"/>
<path d="M816 858 c7 -11 34 -10 34 1 0 6 -9 9 -19 8 -11 0 -17 -5 -15 -9z"/>
</g>
</svg>
